<svg width="38" height="28" viewBox="0 0 38 28" fill="none" xmlns="http://www.w3.org/2000/svg">
<path d="M12.9297 6.56348C11.804 6.23991 10.9837 5.84342 10.4688 5.37402C9.95833 4.90007 9.70312 4.31673 9.70312 3.62402C9.70312 2.84017 10.0153 2.19303 10.6396 1.68262C11.2686 1.16764 12.0843 0.910156 13.0869 0.910156C13.7705 0.910156 14.3789 1.04232 14.9121 1.30664C15.4499 1.57096 15.8646 1.93555 16.1562 2.40039C16.4525 2.86523 16.6006 3.37337 16.6006 3.9248H15.2812C15.2812 3.32324 15.0898 2.85156 14.707 2.50977C14.3242 2.16341 13.7842 1.99023 13.0869 1.99023C12.4398 1.99023 11.9339 2.13379 11.5693 2.4209C11.2093 2.70345 11.0293 3.09766 11.0293 3.60352C11.0293 4.00911 11.2002 4.35319 11.542 4.63574C11.8883 4.91374 12.474 5.16895 13.2988 5.40137C14.1283 5.63379 14.7754 5.89128 15.2402 6.17383C15.7096 6.45182 16.056 6.77767 16.2793 7.15137C16.5072 7.52507 16.6211 7.96484 16.6211 8.4707C16.6211 9.27734 16.3066 9.92448 15.6777 10.4121C15.0488 10.8952 14.208 11.1367 13.1553 11.1367C12.4717 11.1367 11.8337 11.0068 11.2412 10.7471C10.6488 10.4827 10.1908 10.1227 9.86719 9.66699C9.54818 9.21126 9.38867 8.69401 9.38867 8.11523H10.708C10.708 8.7168 10.929 9.19303 11.3711 9.54395C11.8177 9.8903 12.4124 10.0635 13.1553 10.0635C13.848 10.0635 14.3789 9.9222 14.748 9.63965C15.1172 9.3571 15.3018 8.97201 15.3018 8.48438C15.3018 7.99674 15.1309 7.62077 14.7891 7.35645C14.4473 7.08757 13.8275 6.82324 12.9297 6.56348ZM21.1807 11.1367C20.1781 11.1367 19.3623 10.8086 18.7334 10.1523C18.1045 9.49154 17.79 8.6097 17.79 7.50684V7.27441C17.79 6.54069 17.929 5.88672 18.207 5.3125C18.4896 4.73372 18.8815 4.28255 19.3828 3.95898C19.8887 3.63086 20.4355 3.4668 21.0234 3.4668C21.985 3.4668 22.7324 3.78353 23.2656 4.41699C23.7988 5.05046 24.0654 5.95736 24.0654 7.1377V7.66406H19.0547C19.0729 8.39323 19.2848 8.9834 19.6904 9.43457C20.1006 9.88118 20.6201 10.1045 21.249 10.1045C21.6956 10.1045 22.0739 10.0133 22.3838 9.83105C22.6937 9.64876 22.9648 9.40723 23.1973 9.10645L23.9697 9.70801C23.3499 10.6605 22.4202 11.1367 21.1807 11.1367ZM21.0234 4.50586C20.513 4.50586 20.0846 4.69271 19.7383 5.06641C19.3919 5.43555 19.1777 5.95508 19.0957 6.625H22.8008V6.5293C22.7643 5.88672 22.5911 5.38997 22.2812 5.03906C21.9714 4.68359 21.5521 4.50586 21.0234 4.50586ZM27.251 1.8125V3.60352H28.6318V4.58105H27.251V9.16797C27.251 9.46419 27.3125 9.6875 27.4355 9.83789C27.5586 9.98372 27.7682 10.0566 28.0645 10.0566C28.2103 10.0566 28.4108 10.0293 28.666 9.97461V11C28.3333 11.0911 28.0098 11.1367 27.6953 11.1367C27.1302 11.1367 26.7041 10.9658 26.417 10.624C26.1299 10.2822 25.9863 9.79688 25.9863 9.16797V4.58105H24.6396V3.60352H25.9863V1.8125H27.251ZM2.06738 23.1035V27H0.754883V17.0469H4.42578C5.51497 17.0469 6.36719 17.3249 6.98242 17.8809C7.60221 18.4368 7.91211 19.1729 7.91211 20.0889C7.91211 21.055 7.60905 21.8001 7.00293 22.3242C6.40137 22.8438 5.53776 23.1035 4.41211 23.1035H2.06738ZM2.06738 22.0303H4.42578C5.1276 22.0303 5.66536 21.8662 6.03906 21.5381C6.41276 21.2054 6.59961 20.7269 6.59961 20.1025C6.59961 19.5101 6.41276 19.0361 6.03906 18.6807C5.66536 18.3252 5.15267 18.1406 4.50098 18.127H2.06738V22.0303ZM10.6533 20.499C11.2139 19.8109 11.943 19.4668 12.8408 19.4668C14.404 19.4668 15.1924 20.3486 15.2061 22.1123V27H13.9414V22.1055C13.9368 21.5723 13.8138 21.1781 13.5723 20.9229C13.3353 20.6676 12.9639 20.54 12.458 20.54C12.0479 20.54 11.6878 20.6494 11.3779 20.8682C11.068 21.0869 10.8265 21.374 10.6533 21.7295V27H9.38867V16.5H10.6533V20.499ZM21.666 27C21.5931 26.8542 21.5339 26.5944 21.4883 26.2207C20.9004 26.8314 20.1986 27.1367 19.3828 27.1367C18.6536 27.1367 18.0544 26.9316 17.585 26.5215C17.1201 26.1068 16.8877 25.5827 16.8877 24.9492C16.8877 24.179 17.1794 23.582 17.7627 23.1582C18.3506 22.7298 19.1755 22.5156 20.2373 22.5156H21.4678V21.9346C21.4678 21.4925 21.3356 21.1416 21.0713 20.8818C20.807 20.6175 20.4173 20.4854 19.9023 20.4854C19.4512 20.4854 19.0729 20.5993 18.7676 20.8271C18.4622 21.055 18.3096 21.3307 18.3096 21.6543H17.0381C17.0381 21.2852 17.168 20.9297 17.4277 20.5879C17.6921 20.2415 18.0475 19.9681 18.4941 19.7676C18.9453 19.5671 19.4398 19.4668 19.9775 19.4668C20.8298 19.4668 21.4974 19.681 21.9805 20.1094C22.4635 20.5332 22.7142 21.1188 22.7324 21.8662V25.2705C22.7324 25.9495 22.819 26.4896 22.9922 26.8906V27H21.666ZM19.5674 26.0361C19.9639 26.0361 20.3398 25.9336 20.6953 25.7285C21.0508 25.5234 21.3083 25.2568 21.4678 24.9287V23.4111H20.4766C18.9271 23.4111 18.1523 23.8646 18.1523 24.7715C18.1523 25.168 18.2845 25.4779 18.5488 25.7012C18.8132 25.9245 19.1527 26.0361 19.5674 26.0361ZM29.0215 25.0381C29.0215 24.6963 28.8916 24.432 28.6318 24.2451C28.3766 24.0537 27.9277 23.8896 27.2852 23.7529C26.6471 23.6162 26.139 23.4521 25.7607 23.2607C25.387 23.0693 25.109 22.8415 24.9268 22.5771C24.749 22.3128 24.6602 21.9984 24.6602 21.6338C24.6602 21.0277 24.9154 20.515 25.4258 20.0957C25.9408 19.6764 26.597 19.4668 27.3945 19.4668C28.2331 19.4668 28.9121 19.6833 29.4316 20.1162C29.9557 20.5492 30.2178 21.1029 30.2178 21.7773H28.9463C28.9463 21.431 28.7982 21.1325 28.502 20.8818C28.2103 20.6312 27.8411 20.5059 27.3945 20.5059C26.9342 20.5059 26.5742 20.6061 26.3145 20.8066C26.0547 21.0072 25.9248 21.2692 25.9248 21.5928C25.9248 21.8981 26.0456 22.1283 26.2871 22.2832C26.5286 22.4382 26.9639 22.5863 27.5928 22.7275C28.2262 22.8688 28.7389 23.0374 29.1309 23.2334C29.5228 23.4294 29.8122 23.6663 29.999 23.9443C30.1904 24.2178 30.2861 24.5527 30.2861 24.9492C30.2861 25.61 30.0218 26.141 29.4932 26.542C28.9645 26.9385 28.2786 27.1367 27.4355 27.1367C26.8431 27.1367 26.319 27.0319 25.8633 26.8223C25.4076 26.6126 25.0498 26.321 24.79 25.9473C24.5348 25.569 24.4072 25.1611 24.4072 24.7236H25.6719C25.6947 25.1475 25.8633 25.4847 26.1777 25.7354C26.4967 25.9814 26.916 26.1045 27.4355 26.1045C27.9141 26.1045 28.2969 26.0088 28.584 25.8174C28.8757 25.6214 29.0215 25.3617 29.0215 25.0381ZM35.0029 27.1367C34.0003 27.1367 33.1846 26.8086 32.5557 26.1523C31.9268 25.4915 31.6123 24.6097 31.6123 23.5068V23.2744C31.6123 22.5407 31.7513 21.8867 32.0293 21.3125C32.3118 20.7337 32.7038 20.2826 33.2051 19.959C33.7109 19.6309 34.2578 19.4668 34.8457 19.4668C35.8073 19.4668 36.5547 19.7835 37.0879 20.417C37.6211 21.0505 37.8877 21.9574 37.8877 23.1377V23.6641H32.877C32.8952 24.3932 33.1071 24.9834 33.5127 25.4346C33.9229 25.8812 34.4424 26.1045 35.0713 26.1045C35.5179 26.1045 35.8962 26.0133 36.2061 25.8311C36.516 25.6488 36.7871 25.4072 37.0195 25.1064L37.792 25.708C37.1722 26.6605 36.2425 27.1367 35.0029 27.1367ZM34.8457 20.5059C34.3353 20.5059 33.9069 20.6927 33.5605 21.0664C33.2142 21.4355 33 21.9551 32.918 22.625H36.623V22.5293C36.5866 21.8867 36.4134 21.39 36.1035 21.0391C35.7936 20.6836 35.3743 20.5059 34.8457 20.5059Z" fill="black"/>
</svg>
